<?xml version="1.0" encoding="UTF-8"?><svg xmlns="http://www.w3.org/2000/svg" viewBox="0 0 2551.36 2547.56"><g id="a"><rect x="28.76" y="46.14" width="2482.36" height="2482.36" rx="370.12" ry="370.12" style="stroke:#00ff04; stroke-miterlimit:10;"/></g><g id="b"><rect x="211.76" y="229.32" width="1029.21" height="1029.21" rx="319.77" ry="319.77" style="fill:#f60; stroke:#00ff04; stroke-miterlimit:10;"/></g><g id="c"><rect x="1299.91" y="203.71" width="1029.21" height="1029.21" rx="319.77" ry="319.77" style="fill:red; stroke:#00ff04; stroke-miterlimit:10;"/></g><g id="d"><rect x="1320.21" y="1326.32" width="1029.21" height="1029.21" rx="319.77" ry="319.77" style="fill:#0c0; stroke:#00ff04; stroke-miterlimit:10;"/></g><g id="e"><rect x="211.76" y="1326.32" width="1029.21" height="1029.21" rx="319.77" ry="319.77" style="fill:#30f; stroke:#00ff04; stroke-miterlimit:10;"/></g><g id="f"><rect x="255.13" y="271.01" width="2021.41" height="2021.41" rx="395.98" ry="395.98" transform="translate(1277.07 -519.67) rotate(45)" style="fill:#d40011; stroke:#00ff04; stroke-miterlimit:10;"/></g><g id="g"><g><path d="M792.89,1381.59h-172.61v262.52c0,37.53-8.88,66-26.59,85.39s-40.09,29.09-67.09,29.09-51.06-9.61-68.36-28.8c-17.31-19.2-25.95-47.38-25.95-84.53V929.83c0-41.36,9.5-70.91,28.53-88.64,19.02-17.72,49.23-26.59,90.66-26.59h241.55c71.44,0,126.38,5.48,164.84,16.44,37.88,10.56,70.59,28.09,98.16,52.59s48.48,54.48,62.8,89.95c14.31,35.48,21.47,75.41,21.47,119.75,0,94.61-29.11,166.31-87.33,215.09s-144.91,73.17-260.06,73.17Zm-45.69-426h-126.92v284h126.92c44.42,0,81.55-4.64,111.38-13.94,29.81-9.3,52.56-24.52,68.22-45.64s23.48-48.81,23.48-83.06c0-40.98-12.06-74.38-36.17-100.16-27.08-27.47-82.72-41.2-166.91-41.2Z" style="fill:#fff;"/><path d="M2144.71,1365.61v177.67c0,23.61-2.33,42.47-6.95,56.59-4.64,14.12-13.17,26.88-25.61,38.25s-28.36,22.34-47.75,32.88c-56.09,30.47-110.08,52.69-161.95,66.66-51.88,13.95-108.39,20.94-169.53,20.94-71.28,0-136.23-10.98-194.86-32.92-58.62-21.95-108.59-53.83-149.92-95.62-41.34-41.78-73.08-92.44-95.22-151.97s-33.2-126.02-33.2-199.48,10.75-138.25,32.27-198.2c21.5-59.94,53.14-110.81,94.89-152.61s92.56-73.78,152.45-95.94c59.88-22.16,127.78-33.25,203.7-33.25,62.41,0,117.66,8.36,165.73,25.06s87.09,37.73,117.03,63.09c29.94,25.38,52.5,52.22,67.69,80.55,15.19,28.34,22.78,53.5,22.78,75.47,0,23.69-8.75,43.88-26.25,60.58s-38.48,25.05-62.92,25.05c-13.5,0-26.45-3.19-38.89-9.58-12.44-6.38-22.88-15.33-31.31-26.83-23.22-36.34-42.86-63.83-58.89-82.44-16.05-18.59-37.69-34.23-64.91-46.92s-61.94-19.03-104.14-19.03-82.33,7.5-116.52,22.47c-34.19,14.98-63.42,36.72-87.69,65.19-24.28,28.48-42.84,63.41-55.72,104.75-12.88,41.36-19.31,87.14-19.31,137.34,0,108.88,25,192.62,75.03,251.28,50.02,58.66,119.77,87.97,209.27,87.97,43.47,0,84.31-5.67,122.52-17.05,38.19-11.38,76.92-27.58,116.19-48.64v-150.31h-145.62c-35.05,0-61.53-5.27-79.47-15.8s-26.91-28.45-26.91-53.75c0-20.66,7.48-37.72,22.47-51.22,14.97-13.48,35.33-20.23,61.06-20.23h213.27c26.16,0,48.3,2.33,66.44,6.95,18.14,4.64,32.8,14.97,43.98,30.98,11.19,16.03,16.78,40.05,16.78,72.08Z" style="fill:#fff;"/></g></g></svg>